<svg xmlns="http://www.w3.org/2000/svg" width="40" height="40" viewBox="0 0 40 40">
  <defs>
    <clipPath id="clip-path">
      <rect id="Rectangle_6255" data-name="Rectangle 6255" width="40" height="40" transform="translate(-15297 497)" fill="#fff"/>
    </clipPath>
  </defs>
  <g id="Icon" transform="translate(15297 -497)" clip-path="url(#clip-path)">
    <g id="Group_23690" data-name="Group 23690" transform="translate(-15293.667 502)">
      <path id="Path_10777" data-name="Path 10777" d="M79.769,38.1a.332.332,0,0,1-.235-.1l-4.4-4.405L70.724,38a.334.334,0,0,1-.472-.472l4.64-4.64a.33.33,0,0,1,.47,0L80,37.528a.334.334,0,0,1-.235.57Z" transform="translate(-58.462 -29.46)" fill="#f9f5f2" stroke="#f9f5f2" stroke-width="1"/>
      <path id="Path_10778" data-name="Path 10778" d="M86.273,70.432h-6.03a.334.334,0,0,1-.333-.333V66.143a.333.333,0,1,1,.667,0v3.622H85.94V66.143a.333.333,0,1,1,.667,0V70.1a.334.334,0,0,1-.333.333Z" transform="translate(-66.591 -56.977)" fill="#f9f5f2" stroke="#f9f5f2" stroke-width="1"/>
      <path id="Path_10779" data-name="Path 10779" d="M58.106,36.522a1.626,1.626,0,0,1-1.433-.838l-5.857-10.4a8.368,8.368,0,1,1,14.583,0l-5.857,10.4a1.626,1.626,0,0,1-1.433.838Zm0-23.047a7.7,7.7,0,0,0-6.71,11.48l5.857,10.4a.98.98,0,0,0,1.707,0l5.857-10.4a7.7,7.7,0,0,0-6.71-11.48Z" transform="translate(-41.439 -12.81)" fill="#f9f5f2" stroke="#f9f5f2" stroke-width="1"/>
      <path id="Path_10780" data-name="Path 10780" d="M33,139.742H.331a.333.333,0,0,1-.273-.525l6.235-8.825a.332.332,0,0,1,.272-.142h5.868a.333.333,0,0,1,0,.667h-5.7L.974,139.075h31.38l-5.763-8.158h-5.7a.333.333,0,0,1,0-.667h5.868a.332.332,0,0,1,.272.142l6.235,8.825a.33.33,0,0,1,.023.345.334.334,0,0,1-.3.18Z" transform="translate(0.003 -110.677)" fill="#f9f5f2" stroke="#f9f5f2" stroke-width="1"/>
    </g>
  </g>
</svg>
